<?xml version="1.0" standalone="no"?>
<!DOCTYPE svg PUBLIC "-//W3C//DTD SVG 20010904//EN"
 "http://www.w3.org/TR/2001/REC-SVG-20010904/DTD/svg10.dtd">
<svg version="1.0" xmlns="http://www.w3.org/2000/svg"
 width="1875.000000pt" height="1875.000000pt" viewBox="0 0 1875.000000 1875.000000"
 preserveAspectRatio="xMidYMid meet">
<metadata>
Created by potrace 1.11, written by Peter Selinger 2001-2013
</metadata>
<g transform="translate(0.000000,1875.000000) scale(0.100000,-0.100000)"
fill="#000000" stroke="none">
<path d="M8930 18739 c-581 -27 -1206 -118 -1785 -259 -2279 -558 -4271 -1956
-5573 -3912 -855 -1283 -1369 -2726 -1526 -4278 -32 -315 -40 -497 -40 -915 0
-490 15 -749 69 -1180 223 -1762 950 -3437 2089 -4810 355 -427 845 -913 1276
-1266 1872 -1531 4267 -2280 6680 -2089 1921 153 3757 900 5245 2134 412 342
879 809 1221 1221 884 1065 1523 2317 1868 3655 404 1573 392 3235 -35 4799
-525 1922 -1630 3605 -3189 4856 -1772 1422 -4019 2151 -6300 2044z m3500
-4442 c0 -367 -142 -779 -378 -1095 -304 -408 -713 -672 -1202 -778 l-125 -27
-745 -7 c-798 -8 -861 -11 -1126 -65 -571 -116 -1098 -417 -1523 -872 -444
-476 -692 -992 -787 -1638 -17 -110 -19 -266 -24 -1835 -7 -1879 -3 -1774 -66
-2024 -37 -149 -69 -237 -139 -381 -166 -343 -432 -643 -768 -868 -300 -200
-670 -317 -1037 -329 l-95 -3 0 2630 c0 2779 -1 2739 46 3090 127 952 522
1804 1175 2536 139 156 401 411 564 548 473 401 970 693 1525 898 436 161 970
268 1462 292 87 4 852 9 1701 9 l1542 2 0 -83z m1245 -577 c392 -100 658 -445
658 -850 -1 -182 -47 -333 -149 -487 -124 -186 -331 -324 -553 -369 -125 -25
-307 -16 -421 21 -231 74 -415 225 -520 426 -77 149 -102 251 -102 420 1 423
298 773 725 855 95 18 259 11 362 -16z m-1578 -2234 c69 -31 128 -88 165 -158
l23 -43 5 -2580 5 -2580 890 -5 890 -5 50 -27 c67 -35 118 -90 152 -163 l28
-60 0 -615 0 -615 -29 -63 c-37 -79 -114 -153 -188 -179 -51 -17 -128 -18
-1673 -18 l-1620 0 -67 33 c-73 36 -124 87 -160 161 l-23 46 -3 2572 -2 2573
-873 2 -872 3 -50 23 c-63 29 -129 92 -163 157 l-27 50 0 645 0 645 29 53 c49
88 136 153 229 172 23 4 758 7 1632 6 l1590 -1 62 -29z"/>
</g>
</svg>
