<svg version="1.1" id="svg-logo" xmlns="http://www.w3.org/2000/svg" xmlns:xlink="http://www.w3.org/1999/xlink" x="0px" y="0px"
     viewBox="0 0 600 600" preserveAspectratio="xMidYMid meet" style="enable-background:new 0 0 600 600;" xml:space="preserve">
    <a xlink:href="/" target="_top">
        <title>ichadhr</title>
        <defs>
        <style type="text/css"><![CDATA[
            .c-fill {
                fill:none;
            }

            .c-stroke {
                fill:#333;
            }

            .c-logo {
                fill:#333;
            }

            #svg-logo {
                transition: all 86ms ease;
            }

            #svg-logo:hover .c-fill {
                fill: #333;
            }

            #svg-logo:hover .c-stroke {
                fill: none;
            }

            #svg-logo:hover .c-logo {
                fill: #fff;
            }
        ]]></style>
        </defs>
        <path class="c-fill" d="M300,591.5A291.5,291.5,0,0,1,93.88,93.88,291.5,291.5,0,0,1,506.12,506.12,289.6,289.6,0,0,1,300,591.5Z"/>
        <path class="c-stroke" d="M300,17A283.08,283.08,0,0,1,410.15,560.77,283.08,283.08,0,0,1,189.85,39.23,281.21,281.21,0,0,1,300,17m0-17C134.31,0,0,134.31,0,300S134.31,600,300,600,600,465.69,600,300,465.69,0,300,0Z"/>
        <path class="c-logo" d="M208.55,392.85q0,27.64-19.83,47.38t-47.47,19.83V299.67q0-66.46,47.84-113c31.93-31,70-46.73,114.3-46.73h94.48q0,26.39-18.62,45.05a61.49,61.49,0,0,1-45.05,18.62H303.4c-26.43,0-48.77,9.4-67.2,28.2s-27.64,41.42-27.64,67.86Z"/>
        <path class="c-logo" d="M447.3,404H393.41v-162a10.57,10.57,0,0,0-10.52-10.52H284a10.57,10.57,0,0,0-10.52,10.52v35.09A10.57,10.57,0,0,0,284,287.67h53.24V449.53a10.57,10.57,0,0,0,10.52,10.52h99.5a10.57,10.57,0,0,0,10.52-10.52v-35A10.57,10.57,0,0,0,447.3,404Z"/>
        <circle class="c-logo" cx="430.73" cy="188.07" r="28.02"/>
    </a>
</svg>