<svg xmlns="http://www.w3.org/2000/svg" viewBox="0 0 600 600">
    <defs>
        <style>
            .cls-1{fill:#333;}.cls-2{fill:#fff;}
        </style>
    </defs>
    <title>logo</title>
    <circle class="cls-1" cx="300" cy="300" r="300"/>
    <path class="cls-2" d="M208.55,392.85q0,27.64-19.83,47.38t-47.47,19.83V299.67q0-66.46,47.84-113c31.93-31,70-46.73,114.3-46.73h94.48q0,26.39-18.62,45.05a61.49,61.49,0,0,1-45.05,18.62H303.4c-26.43,0-48.77,9.4-67.2,28.2s-27.64,41.42-27.64,67.86Z"/>
    <path class="cls-2" d="M447.3,404H393.41v-162a10.57,10.57,0,0,0-10.52-10.52H284a10.57,10.57,0,0,0-10.52,10.52v35.09A10.57,10.57,0,0,0,284,287.67h53.24V449.53a10.57,10.57,0,0,0,10.52,10.52h99.5a10.57,10.57,0,0,0,10.52-10.52v-35A10.57,10.57,0,0,0,447.3,404Z"/>
    <circle class="cls-2" cx="430.73" cy="188.07" r="28.02"/>

</svg>