<?xml version="1.0" encoding="UTF-8" standalone="no"?>
<svg width="96px" height="96px" viewBox="0 0 96 96" version="1.1" xmlns="http://www.w3.org/2000/svg" xmlns:xlink="http://www.w3.org/1999/xlink" xmlns:sketch="http://www.bohemiancoding.com/sketch/ns">
    <title>logo</title>
    <description>Created with Sketch (http://www.bohemiancoding.com/sketch)</description>
    <defs></defs>
    <g id="Page-1" stroke="none" stroke-width="1" fill="none" fill-rule="evenodd" sketch:type="MSPage">
        <g id="Article" sketch:type="MSArtboardGroup" transform="translate(-72.000000, -40.000000)">
            <g id="Logo" sketch:type="MSLayerGroup" transform="translate(72.000000, 40.000000)">
                <path d="M48,96 C74.5096693,96 96,74.5096693 96,48 C96,21.4903307 74.5096693,0 48,0 C21.4903307,0 0,21.4903307 0,48 C0,74.5096693 21.4903307,96 48,96 Z" id="Oval-1" fill="#DB4E44" sketch:type="MSShapeGroup"></path>
                <path d="M28,32 L28,38 L42,38 L42,32 L28,32 Z M42,32 L42,58 L48,58 L48,32 L42,32 Z M22,52 L22,58 L28,58 L28,52 L22,52 Z M28,58 L28,64 L42,64 L42,58 L28,58 Z M54,32 L54,64 L60,64 L60,32 L54,32 Z M60,32 L60,38 L74,38 L74,32 L60,32 Z" id="JT-32" fill="#FFFFFF" sketch:type="MSShapeGroup"></path>
            </g>
        </g>
    </g>
</svg>